# xmcd CD database file
#
# Track frame offsets:
#	150
#	4349
#	35147
#	53981
#	79089
#	112112
#	130238
#	143091
#	156562
#	173094
#	185366
#	201491
#	213146
#	234101
#
# Disc length: 3755 seconds
#
# Revision: 0
# Processed by: cddbd v1.5.2PL0 Copyright (c) Steve Scherf et al.
# Submitted via: CDex 1.51
#
DISCID=c60ea90e
DTITLE=Sampler - American Folk Blues Festival 1962 Paris  CD 3
DYEAR=1962
DGENRE=Blues
TTITLE0=Memphis Slim - Introduction
TTITLE1=John Lee Hooker - Everyday
TTITLE2=John Lee Hooker - Let`s Make It Baby
TTITLE3=John Lee Hooker - The Right Time
TTITLE4=John Lee Hooker - It`s My Own Fault
TTITLE5=John Lee Hooker - Money
TTITLE6=Memphis Slim - Band Introduction
TTITLE7=Memphis Slim and Willie Dixon - Rockin' The House
TTITLE8=T-Bone Walker - Moanin'
TTITLE9=Helen Humes - Money Honey
TTITLE10=Helen Humes - Baby Won`t You Please Come Home
TTITLE11=Helen Humes - Kansas City
TTITLE12=Helen Humes - Married Man Blues
TTITLE13=Shakey Jake and Willie Dixon - Bye Bye Baby (Finale)
EXTD=YEAR: 1962
EXTT0=
EXTT1=
EXTT2=
EXTT3=
EXTT4=
EXTT5=
EXTT6=
EXTT7=
EXTT8=
EXTT9=
EXTT10=
EXTT11=
EXTT12=
EXTT13=
PLAYORDER=
